<?xml version="1.0" encoding="UTF-8" standalone="no"?>
<!-- Generator: Adobe Illustrator 15.1.0, SVG Export Plug-In . SVG Version: 6.00 Build 0)  -->

<svg
   xmlns:dc="http://purl.org/dc/elements/1.1/"
   xmlns:cc="http://creativecommons.org/ns#"
   xmlns:rdf="http://www.w3.org/1999/02/22-rdf-syntax-ns#"
   xmlns:svg="http://www.w3.org/2000/svg"
   xmlns="http://www.w3.org/2000/svg"
   xmlns:sodipodi="http://sodipodi.sourceforge.net/DTD/sodipodi-0.dtd"
   xmlns:inkscape="http://www.inkscape.org/namespaces/inkscape"
   version="1.1"
   id="Layer_1"
   x="0px"
   y="0px"
   width="100px"
   height="100px"
   viewBox="0 0 100 100"
   fill="white" stroke="white"
   enable-background="new 0 0 100 100"
   xml:space="preserve"
   sodipodi:docname="BlackCloud.svg"
   inkscape:version="0.92.1 r15371"><metadata
     id="metadata9"><rdf:RDF><cc:Work
         rdf:about=""><dc:format>image/svg+xml</dc:format><dc:type
           rdf:resource="http://purl.org/dc/dcmitype/StillImage" /><dc:title></dc:title></cc:Work></rdf:RDF></metadata><defs
     id="defs7" /><sodipodi:namedview
     pagecolor="#ffffff"
     bordercolor="#666666"
     borderopacity="1"
     objecttolerance="10"
     gridtolerance="10"
     guidetolerance="10"
     inkscape:pageopacity="0"
     inkscape:pageshadow="2"
     inkscape:window-width="1920"
     inkscape:window-height="1058"
     id="namedview5"
     showgrid="false"
     inkscape:zoom="4.72"
     inkscape:cx="25.328353"
     inkscape:cy="60.699854"
     inkscape:window-x="-8"
     inkscape:window-y="-8"
     inkscape:window-maximized="1"
     inkscape:current-layer="Layer_1" /><path
     d="m 43.945312,33.642578 c -6.560036,-0.07923 -12.810233,4.311779 -15.015851,10.48386 -2.420637,6.278784 -0.268486,13.918796 5.061245,18.021985 3.218825,2.649608 7.470922,3.698914 11.586571,3.490249 5.111671,-0.03024 10.22847,0.06197 15.336785,-0.04883 5.722379,-0.351455 10.676165,-5.325931 10.994062,-11.051228 0.558657,-5.762434 -3.695679,-11.434012 -9.339765,-12.601116 -1.52236,-0.346871 -3.109694,-0.378981 -4.646484,-0.0957 -1.721017,-2.999455 -4.383021,-5.469338 -7.560547,-6.847656 0.792868,-0.636734 -0.820612,-0.07445 -1.137215,-0.450364 -1.693501,-0.598495 -3.485218,-0.887407 -5.278801,-0.901199 z m 23.916016,18.90625 c 0.08309,0.946429 0.11017,1.52067 0,0 z m -0.09766,0.0059 c 0.120015,1.1185 0.04497,0.856197 0,0 z"
     id="path2"
     inkscape:connector-curvature="0" /><path
     style="opacity:1;fill:#000000;fill-opacity:1;stroke:none;stroke-width:0.00132415;stroke-linecap:round;stroke-linejoin:miter;stroke-miterlimit:4;stroke-dasharray:none;stroke-opacity:0.94472363"
     d=""
     id="path4527"
     inkscape:connector-curvature="0" /><path
     style="opacity:1;fill:#000000;fill-opacity:1;stroke:none;stroke-width:0.00132415;stroke-linecap:round;stroke-linejoin:miter;stroke-miterlimit:4;stroke-dasharray:none;stroke-opacity:0.94472363"
     d=""
     id="path4533"
     inkscape:connector-curvature="0" /><path
     style="opacity:1;fill:#000000;fill-opacity:1;stroke:none;stroke-width:0.00132415;stroke-linecap:round;stroke-linejoin:miter;stroke-miterlimit:4;stroke-dasharray:none;stroke-opacity:0.94472363"
     d=""
     id="path4535"
     inkscape:connector-curvature="0" /><path
     inkscape:connector-curvature="0"
     style="clip-rule:evenodd;fill-rule:evenodd;stroke-width:0.78637469"
     d="m 56.717854,54.148072 c -7.090087,0 -12.838393,-5.518848 -12.838393,-12.327637 0,-6.808788 5.748306,-12.327636 12.838393,-12.327636 4.818209,0 9.011269,2.55214 11.206909,6.321015 0.53286,-0.08708 1.07375,-0.157967 1.63148,-0.157967 5.31817,0 9.6292,4.140292 9.6292,9.246883 0,5.10505 -4.31103,9.245342 -9.6292,9.245342 -2.22693,0 -10.271994,0 -12.838389,0 z m 12.838389,-3.082295 c 3.54545,0 6.42,-2.760194 6.42,-6.163047 0,-3.404394 -2.87455,-6.164589 -6.42,-6.164589 -1.284,0 -2.4733,0.370646 -3.47723,0.994811 -0.98788,-4.09637 -4.794132,-7.158629 -9.361159,-7.158629 -5.317365,0 -9.628394,4.139521 -9.628394,9.246112 0,5.105821 4.311029,9.245342 9.628394,9.245342 2.902642,0 10.415649,0 12.838389,0 z"
     id="path2-69" /><path
     style="opacity:1;fill:#000000;fill-opacity:1;stroke:none;stroke-width:0.00033104;stroke-linecap:round;stroke-linejoin:miter;stroke-miterlimit:4;stroke-dasharray:none;stroke-opacity:0.94472363"
     d=""
     id="path4573"
     inkscape:connector-curvature="0" /><path
     style="opacity:1;fill:#000000;fill-opacity:1;stroke:none;stroke-width:0.00374527;stroke-linecap:round;stroke-linejoin:miter;stroke-miterlimit:4;stroke-dasharray:none;stroke-opacity:0.94472363"
     d=""
     id="path4589"
     inkscape:connector-curvature="0" /><path
     style="opacity:1;fill:#000000;fill-opacity:1;stroke:none;stroke-width:0.00374527;stroke-linecap:round;stroke-linejoin:miter;stroke-miterlimit:4;stroke-dasharray:none;stroke-opacity:0.94472363"
     d=""
     id="path4591"
     inkscape:connector-curvature="0" /><path
     style="opacity:1;fill:#000000;fill-opacity:1;stroke:none;stroke-width:0.00066208;stroke-linecap:round;stroke-linejoin:miter;stroke-miterlimit:4;stroke-dasharray:none;stroke-opacity:0.94472363"
     d=""
     id="path4600"
     inkscape:connector-curvature="0" /><path
     style="opacity:1;fill:#000000;fill-opacity:1;stroke:none;stroke-width:0.00066208;stroke-linecap:round;stroke-linejoin:miter;stroke-miterlimit:4;stroke-dasharray:none;stroke-opacity:0.94472363"
     d=""
     id="path4602"
     inkscape:connector-curvature="0" /><path
     style="opacity:1;fill:#000000;fill-opacity:1;stroke:none;stroke-width:0.00066208;stroke-linecap:round;stroke-linejoin:miter;stroke-miterlimit:4;stroke-dasharray:none;stroke-opacity:0.94472363"
     d=""
     id="path4606"
     inkscape:connector-curvature="0" /></svg>