<?xml version="1.0" encoding="utf-8"?>
<!-- Svg Vector Icons : http://www.onlinewebfonts.com/icon -->
<!DOCTYPE svg PUBLIC "-//W3C//DTD SVG 1.1//EN" "http://www.w3.org/Graphics/SVG/1.1/DTD/svg11.dtd">
<svg version="1.1" xmlns="http://www.w3.org/2000/svg" xmlns:xlink="http://www.w3.org/1999/xlink" x="0px" y="0px" viewBox="0 0 1000 1000" fill="white" stroke="white" enable-background="new 0 0 1000 1000" xml:space="preserve">
<metadata> Svg Vector Icons : http://www.onlinewebfonts.com/icon </metadata>
<g><g><g><path d="M550.8,696l-50.9-268.6L449,696c-25.4,14.6-39.9,43.7-39.9,76.3c0,50.9,39.9,90.7,90.7,90.7c50.9,0,90.7-39.9,90.7-90.7C590.8,739.4,576.2,714,550.8,696z M500.1,826.6c-29,0-54.5-25.4-54.5-54.5c0-29,25.4-54.5,54.5-54.5c29,0,54.5,25.4,54.5,54.5C554.6,801.1,529.1,826.6,500.1,826.6z"/><path d="M278.6,293c-7.2-7.2-18.2-10.8-25.4-3.6c-7.2,7.2-10.8,18.2-3.6,25.4l65.3,87.1c7.2,7.2,18.2,10.8,25.4,3.6c7.2-7.2,10.8-18.2,3.6-25.4L278.6,293z"/><path d="M216.9,699.6l-105.3,32.7c-10.8,3.6-14.6,14.6-10.8,21.8c3.6,10.8,14.4,14.4,21.8,10.8l105.3-32.6c10.8-3.6,14.4-14.4,10.8-21.8C238.7,703.2,227.7,696,216.9,699.6z"/><path d="M231.3,521.7L126,489.1c-10.8-3.6-18.2,3.6-21.8,10.8c-3.6,10.8,3.6,18.2,10.8,21.8l105.3,32.6c10.8,3.6,18.2-3.6,21.8-10.8C242.3,532.6,238.7,521.7,231.3,521.7z"/><path d="M518.1,336.5v-109c0-10.8-7.2-18.2-18.2-18.2c-11,0-18.2,7.2-18.2,18.2v109c0,10.8,7.2,18.2,18.2,18.2C510.9,354.7,518.1,347.5,518.1,336.5z"/><path d="M721.4,293l-65.3,87.1c-7.2,7.2-3.6,18.2,3.6,25.4c7.2,7.2,18.2,3.6,25.4-3.6l65.3-87.1c7.2-7.2,3.6-18.2-3.6-25.4C736,282,725,285.8,721.4,293z"/><path d="M877.6,489.1l-105.3,32.6c-10.8,3.6-14.4,14.4-10.8,21.8c0,7.2,10.8,14.6,21.8,10.8l105.3-32.6c10.8-3.6,14.6-14.6,10.8-21.8C895.7,489.1,884.8,485.5,877.6,489.1z"/><path d="M500.1,137C227.9,137,10,354.9,10,627.1c0,54.5,10.8,109,25.4,159.6l36.3-10.8C53.5,728.6,46.3,678,46.3,627.1c0-250.6,203.3-453.8,453.8-453.8c250.6,0,453.6,203.3,453.6,453.6c0,50.9-7.2,101.5-25.4,148.8l36.3,10.8C982.8,735.7,990,685,990,626.9C990.2,354.7,772.3,137,500.1,137z"/><path d="M884.8,732.2l-105.3-32.7c-10.8-3.6-18.2,3.6-21.8,10.8c-3.6,10.8,3.6,18.2,10.8,21.8l105.3,32.6c10.8,3.6,18.2-3.6,21.8-10.8C899.3,746.7,895.7,735.8,884.8,732.2z"/></g></g><g></g><g></g><g></g><g></g><g></g><g></g><g></g><g></g><g></g><g></g><g></g><g></g><g></g><g></g><g></g></g>
</svg>