<?xml version="1.0" encoding="UTF-8" standalone="no"?>
<!-- Generator: Adobe Illustrator 19.0.0, SVG Export Plug-In . SVG Version: 6.00 Build 0)  -->

<svg
   xmlns:dc="http://purl.org/dc/elements/1.1/"
   xmlns:cc="http://creativecommons.org/ns#"
   xmlns:rdf="http://www.w3.org/1999/02/22-rdf-syntax-ns#"
   xmlns:svg="http://www.w3.org/2000/svg"
   xmlns="http://www.w3.org/2000/svg"
   xmlns:sodipodi="http://sodipodi.sourceforge.net/DTD/sodipodi-0.dtd"
   xmlns:inkscape="http://www.inkscape.org/namespaces/inkscape"
   version="1.1"
   stroke="white" fill="white"
   id="Capa_1"
   x="0px"
   y="0px"
   viewBox="0 0 23.999999 23.999999"
   xml:space="preserve"
   sodipodi:docname="navigation24.svg"
   width="24"
   height="24"
   inkscape:version="0.92.1 r15371"><metadata
     id="metadata39"><rdf:RDF><cc:Work
         rdf:about=""><dc:format>image/svg+xml</dc:format><dc:type
           rdf:resource="http://purl.org/dc/dcmitype/StillImage" /><dc:title></dc:title></cc:Work></rdf:RDF></metadata><defs
     id="defs37" /><sodipodi:namedview
     pagecolor="#ffffff"
     bordercolor="#666666"
     borderopacity="1"
     objecttolerance="10"
     gridtolerance="10"
     guidetolerance="10"
     inkscape:pageopacity="0"
     inkscape:pageshadow="2"
     inkscape:window-width="1920"
     inkscape:window-height="1058"
     id="namedview35"
     showgrid="false"
     inkscape:zoom="3.2317994"
     inkscape:cx="20.299574"
     inkscape:cy="47.349893"
     inkscape:window-x="-8"
     inkscape:window-y="-8"
     inkscape:window-maximized="1"
     inkscape:current-layer="Capa_1" /><path
     d="m 12.111845,0.21368371 c -0.18729,-0.00536 -0.354435,0.1080971 -0.417252,0.2827134 L 3.5837425,22.995895 c -0.064925,0.181144 -0.00383,0.385949 0.1517708,0.505761 0.1555803,0.119812 0.3681527,0.125786 0.5244084,0.015 l 8.0432113,-5.68658 7.428933,5.859408 c 0.15498,0.121676 0.369761,0.129862 0.527266,0.0191 0.02073,-0.01443 0.03958,-0.03011 0.05685,-0.04738 0.115632,-0.115633 0.157228,-0.290503 0.100691,-0.451881 L 12.527072,0.51852011 c -0.06173,-0.1776649 -0.228255,-0.2997922 -0.415227,-0.3048364 z M 19.094933,22.076108 12.577641,16.93531 c -0.155612,-0.122308 -0.37101,-0.129877 -0.528816,-0.01818 L 4.8979898,21.972202 12.106404,1.9769685 Z"
     id="path2"
     inkscape:connector-curvature="0"
     style="stroke-width:0.44132474" /><g
     id="g4"
     transform="translate(0,-27.636002)" /><g
     id="g6"
     transform="translate(0,-27.636002)" /><g
     id="g8"
     transform="translate(0,-27.636002)" /><g
     id="g10"
     transform="translate(0,-27.636002)" /><g
     id="g12"
     transform="translate(0,-27.636002)" /><g
     id="g14"
     transform="translate(0,-27.636002)" /><g
     id="g16"
     transform="translate(0,-27.636002)" /><g
     id="g18"
     transform="translate(0,-27.636002)" /><g
     id="g20"
     transform="translate(0,-27.636002)" /><g
     id="g22"
     transform="translate(0,-27.636002)" /><g
     id="g24"
     transform="translate(0,-27.636002)" /><g
     id="g26"
     transform="translate(0,-27.636002)" /><g
     id="g28"
     transform="translate(0,-27.636002)" /><g
     id="g30"
     transform="translate(0,-27.636002)" /><g
     id="g32"
     transform="translate(0,-27.636002)" /></svg>