<?xml version="1.0" encoding="UTF-8" standalone="no"?>
<!-- Generator: Adobe Illustrator 15.1.0, SVG Export Plug-In . SVG Version: 6.00 Build 0)  -->

<svg
   xmlns:dc="http://purl.org/dc/elements/1.1/"
   xmlns:cc="http://creativecommons.org/ns#"
   xmlns:rdf="http://www.w3.org/1999/02/22-rdf-syntax-ns#"
   xmlns:svg="http://www.w3.org/2000/svg"
   xmlns="http://www.w3.org/2000/svg"
   xmlns:sodipodi="http://sodipodi.sourceforge.net/DTD/sodipodi-0.dtd"
   xmlns:inkscape="http://www.inkscape.org/namespaces/inkscape"
   version="1.1"
   id="Layer_1"
   x="0px"
   y="0px"
   width="24"
   height="24"
   viewBox="0 0 24 24"
   enable-background="new 0 0 100 100"
   xml:space="preserve"
   sodipodi:docname="smallSun.svg"
   style="fill:#ffffff;stroke:#ffffff"
   inkscape:version="0.92.1 r15371"><metadata
     id="metadata9"><rdf:RDF><cc:Work
         rdf:about=""><dc:format>image/svg+xml</dc:format><dc:type
           rdf:resource="http://purl.org/dc/dcmitype/StillImage" /><dc:title></dc:title></cc:Work></rdf:RDF></metadata><defs
     id="defs7" /><sodipodi:namedview
     pagecolor="#ffffff"
     bordercolor="#666666"
     borderopacity="1"
     objecttolerance="10"
     gridtolerance="10"
     guidetolerance="10"
     inkscape:pageopacity="0"
     inkscape:pageshadow="2"
     inkscape:window-width="1920"
     inkscape:window-height="1018"
     id="namedview5"
     showgrid="false"
     inkscape:zoom="9.44"
     inkscape:cx="30.270815"
     inkscape:cy="6.971302"
     inkscape:window-x="-8"
     inkscape:window-y="-8"
     inkscape:window-maximized="1"
     inkscape:current-layer="Layer_1" /><path
     d="m 22.326387,12.938421 h -1.876842 c -0.518737,0 -0.938891,-0.420153 -0.938891,-0.938421 0,-0.518268 0.420154,-0.93889 0.938891,-0.93889 h 1.876842 c 0.518737,0 0.93889,0.420622 0.93889,0.93889 0,0.518268 -0.419684,0.938421 -0.93889,0.938421 z M 18.638895,6.689635 c -0.366637,0.366637 -0.961894,0.366637 -1.327592,0 -0.366636,-0.366636 -0.366636,-0.960954 0,-1.327591 l 1.327592,-1.327591 c 0.365697,-0.366637 0.960954,-0.366637 1.327591,0 0.365698,0.366637 0.365698,0.960955 0,1.327591 z m -6.638426,10.942769 c -3.111013,0 -5.633342,-2.52186 -5.633342,-5.632404 0,-3.111014 2.521859,-5.632873 5.633342,-5.632873 3.111014,0 5.632404,2.521859 5.632404,5.632873 0,3.110544 -2.52139,5.632404 -5.632404,5.632404 z m 0,-9.387496 C 9.92646,8.244908 8.244908,9.925991 8.244908,12 c 0,2.07354 1.682022,3.755092 3.755561,3.755092 2.07354,0 3.754623,-1.681552 3.754623,-3.755092 0,-2.074009 -1.680613,-3.755092 -3.754623,-3.755092 z m 0,-3.755093 c -0.518737,0 -0.93889,-0.420623 -0.93889,-0.93889 V 1.673613 c 0,-0.518267 0.420153,-0.93889 0.93889,-0.93889 0.518268,0 0.938891,0.420623 0.938891,0.93889 v 1.877312 c 0,0.518267 -0.421092,0.93889 -0.938891,0.93889 z M 5.362044,6.689635 4.034453,5.362044 c -0.366637,-0.366636 -0.366637,-0.960954 0,-1.327591 0.366637,-0.366637 0.960955,-0.366637 1.327591,0 l 1.327591,1.327591 c 0.366637,0.366637 0.366637,0.960955 0,1.327591 -0.366636,0.366637 -0.960954,0.366637 -1.327591,0 z M 4.489815,12 c 0,0.518268 -0.420623,0.938421 -0.93889,0.938421 H 1.673144 c -0.518268,0 -0.938421,-0.420153 -0.938421,-0.938421 0,-0.518268 0.420623,-0.93889 0.938421,-0.93889 h 1.877781 c 0.518737,0 0.93889,0.420622 0.93889,0.93889 z m 0.872229,5.310365 c 0.366637,-0.366168 0.960955,-0.366168 1.327591,0 0.366637,0.366636 0.366637,0.961423 0,1.327591 l -1.327591,1.327591 c -0.366636,0.366637 -0.960954,0.366637 -1.327591,0 -0.366637,-0.366167 -0.366637,-0.960955 0,-1.327591 z m 6.638425,2.19982 c 0.518268,0 0.938891,0.420153 0.938891,0.938421 v 1.877781 c 0,0.518267 -0.420623,0.93889 -0.938891,0.93889 -0.518737,0 -0.93889,-0.420623 -0.93889,-0.93889 v -1.877781 c 0,-0.518268 0.420153,-0.938421 0.93889,-0.938421 z m 6.638426,-2.19982 1.327591,1.327591 c 0.365698,0.366636 0.365698,0.961424 0,1.327591 -0.366637,0.366637 -0.961894,0.366637 -1.327591,0 l -1.327592,-1.327591 c -0.366636,-0.366168 -0.366636,-0.960955 0,-1.327591 0.365698,-0.366637 0.960485,-0.366637 1.327592,0 z"
     id="path2"
     style="clip-rule:evenodd;fill:#ffffff;fill-rule:evenodd;stroke:#ffffff;stroke-width:0.46944523"
     inkscape:connector-curvature="0" /></svg>